<svg fill="none" height="15" viewBox="0 0 15 15" width="15" xmlns="http://www.w3.org/2000/svg"><g fill="#000"><path d="m2.86669 10.5142c.04674.037.10262.0553.15826.0553.07468 0 .1486-.0327.1989-.0957.08738-.1098.06935-.2695-.04039-.3569-.20348-.1621-.4006-.33814-.58553-.52333l-1.87929-1.87929 1.93797-1.93796c1.86303-1.86278 4.57323-2.49861 7.07184-1.65981.13285.04395.27685-.02718.32185-.16004.0445-.13285-.0269-.27714-.16004-.32185-2.68303-.90052-5.59264-.2177-7.59285 1.78225l-2.29741 2.29741 2.23848 2.23848c.19839.19864.41.38744.62821.56144z"/><path d="m12.7614 5.41713c-.3424-.34242-.7179-.65132-1.1162-.91856-.1164-.07798-.2746-.04699-.3526.06935-.0782.11635-.047.27435.0694.35259.3708.24869.7209.53676 1.0399.85582l1.8793 1.87928-1.9379 1.93797c-1.876 1.87602-4.70283 2.51032-7.2022 1.61462-.13209-.0475-.27765.0213-.3249.1534s.02134.2774.15343.3249c.80832.2896 1.64863.4301 2.48337.4301 1.93593 0 3.8419-.7563 5.2494-2.16383l2.2972-2.29716z"/><path d="m7.75776 10.6117c-.54692 0-1.07986-.152-1.54194-.4395-.11863-.0737-.27536-.0376-.34979.0815-.07418.1192-.0376.2757.08154.3498.54235.3379 1.16852.5162 1.81019.5162 1.89097 0 3.42934-1.53838 3.42934-3.42935 0-.68206-.1999-1.341-.5779-1.9057-.0782-.1166-.2362-.14785-.3523-.06986-.1166.07824-.1479.23599-.0699.35233.3219.48088.4921 1.04202.4921 1.62323 0 1.61104-1.31056 2.92135-2.92134 2.92135z"/><path d="m7.75774 4.76928c.52456 0 1.03871.14048 1.48732.40645.12041.07138.27638.03175.34802-.08917.07138-.12066.03175-.27638-.08917-.34801-.52685-.3122-1.13067-.47732-1.74643-.47732-1.89097 0-3.42936 1.53838-3.42936 3.42936 0 .52939.11737 1.03719.34904 1.50917.0442.08992.13438.14225.22837.14225.03734 0 .0757-.00838.11151-.02591.126-.06198.17808-.21414.11635-.33989-.19713-.40187-.29721-.83422-.29721-1.28537.00025-1.61103 1.31077-2.92156 2.92156-2.92156z"/><path d="m13.8753 1.41434c-.0993-.09933-.2599-.09933-.3592 0l-11.81221 11.81226c-.09933.0993-.09933.2598 0 .3592.04953.0495.11456.0744.17959.0744.06504 0 .13007-.0249.1796-.0744l11.81222-11.81227c.0993-.09907.0993-.25987 0-.35919z"/></g></svg>