<svg fill="none" height="15" viewBox="0 0 15 15" width="15" xmlns="http://www.w3.org/2000/svg" xmlns:xlink="http://www.w3.org/1999/xlink"><clipPath id="a"><path d="m0 0h15v15h-15z" transform="matrix(-1 0 0 1 15 0)"/></clipPath><g clip-path="url(#a)" fill="#000"><path d="m2.06199 5.46292c3.01242-3.01241 7.91352-3.01241 10.92591 0l2.0121 2.01183-2.062 2.06199c-1.5061 1.50606-3.48445 2.25936-5.46308 2.25936-1.97864 0-3.95676-.753-5.46309-2.25936l-2.01208272-2.01208zm.30837 3.71555c2.81478 2.81453 7.39459 2.81453 10.20934 0l1.7037-1.70372-1.6538-1.6538c-2.81473-2.81453-7.39455-2.81453-10.20933 0l-1.703715 1.70371z"/><path d="m7.76053 5.46533c.97804 0 1.77365.79561 1.77365 1.77365 0 .13987-.11351.25338-.25338.25338-.13986 0-.25338-.11351-.25338-.25338 0-.69856-.56832-1.26689-1.26689-1.26689-.13986 0-.25338-.11351-.25338-.25338 0-.13986.11326-.25338.25338-.25338z"/><path d="m7.50686 4.19824c1.81622 0 3.29394 1.47771 3.29394 3.29392 0 1.81622-1.47772 3.29394-3.29394 3.29394-1.81621 0-3.29392-1.47772-3.29392-3.29394 0-1.81621 1.47745-3.29392 3.29392-3.29392zm0 6.08106c1.53674 0 2.78714-1.2504 2.78714-2.78714s-1.2504-2.78716-2.78714-2.78716-2.78716 1.25042-2.78716 2.78716 1.25017 2.78714 2.78716 2.78714z"/></g></svg>