<svg fill="none" height="9" viewBox="0 0 14 9" width="14" xmlns="http://www.w3.org/2000/svg"><path d="m4.76895 7.72698c0-.08244-.03156-.16488-.09436-.22768l-2.67711-2.67711h11.46012c.1781 0 .322-.14395.322-.32204s-.1439-.32204-.322-.32204h-11.46012l2.66391-2.66391c.12591-.12592.12591-.32945 0-.45537-.12592-.125913-.32945-.125913-.45537 0l-3.213305 3.21331c-.02995.02963-.053459.06538-.069883.10531-.032526.07858-.032526.16714 0 .24604.016424.03961.040255.07536.069883.10498l3.226515 3.22619c.12591.12592.32944.12592.45536 0 .06312-.06279.09436-.14524.09436-.22768z" fill="#2880ce"/></svg>