<svg width="30" height="30" viewBox="0 0 30 30" fill="currentColor" xmlns="http://www.w3.org/2000/svg">
<path d="M14.9945 30C12.0283 29.9989 9.12892 29.1184 6.66302 27.4698C4.19713 25.8211 2.27539 23.4784 1.14076 20.7377C0.00612895 17.997 -0.290458 14.9815 0.288496 12.0723C0.867449 9.1631 2.29595 6.49086 4.3934 4.3934C6.49086 2.29595 9.1631 0.867449 12.0723 0.288496C14.9815 -0.290458 17.997 0.00612895 20.7377 1.14076C23.4784 2.27539 25.8211 4.19713 27.4698 6.66302C29.1184 9.12892 29.9989 12.0283 30 14.9945C29.9971 18.9733 28.4152 22.7883 25.6018 25.6018C22.7883 28.4152 18.9733 29.9971 14.9945 30ZM14.9945 1.61049C12.3461 1.61049 9.75713 2.39591 7.55512 3.86741C5.3531 5.33891 3.63694 7.43039 2.62368 9.87733C1.61042 12.3243 1.34559 15.0167 1.86267 17.6142C2.37975 20.2117 3.65553 22.5974 5.52863 24.4698C7.40174 26.3421 9.78804 27.6169 12.3857 28.1329C14.9834 28.6489 17.6757 28.383 20.1223 27.3687C22.5688 26.3545 24.6596 24.6374 26.1302 22.4348C27.6008 20.2322 28.3851 17.6429 28.384 14.9945C28.3797 11.4447 26.9676 8.04158 24.4575 5.53151C21.9474 3.02143 18.5443 1.60935 14.9945 1.60499V1.61049Z"/>
<path fill-rule="evenodd" clip-rule="evenodd" d="M11.9766 22.1509C11.9766 22.1234 12.2844 22.1509 11.9766 22.1509C11.9766 22.1344 12.015 22.1509 11.9766 22.1509Z"/>
<path fill-rule="evenodd" clip-rule="evenodd" d="M18.1662 7.81592C18.1558 7.82351 18.1433 7.8276 18.1305 7.8276C18.1176 7.8276 18.1051 7.82351 18.0947 7.81592H18.1662Z"/>
<path fill-rule="evenodd" clip-rule="evenodd" d="M5.22168 9.88795C5.22168 9.43261 5.59081 9.06348 6.04616 9.06348L24.1847 9.06349C24.64 9.06349 25.0091 9.43262 25.0091 9.88797V21.4306C25.0091 21.886 24.64 22.2551 24.1847 22.2551H6.04616C5.59081 22.2551 5.22168 21.886 5.22168 21.4306V9.88795ZM8.57626 10.7124L14.855 15.2907L21.5262 10.7124L8.57626 10.7124ZM23.3602 11.4537L15.3071 16.9803C15.0189 17.1781 14.6373 17.1727 14.3548 16.9667L6.87064 11.5095V20.6062H23.3602V11.4537Z"/>
<path fill-rule="evenodd" clip-rule="evenodd" d="M17.9772 14.7212L24.2982 21.0422L23.5209 21.8195L17.1999 15.4985L17.9772 14.7212ZM6.43455 21.8195L5.65723 21.0422L11.9425 14.7569L11.9574 14.742L11.9595 14.7399L11.9634 14.736L11.9639 14.7355L11.9668 14.7326L11.9679 14.7315L11.9685 14.7309L11.969 14.7304L11.9705 14.7289L11.971 14.7285L11.9714 14.728L11.9718 14.7276L11.9723 14.7272L11.9727 14.7268L11.9732 14.7262L11.9737 14.7258L11.9741 14.7253L11.9746 14.7249L11.975 14.7245L11.9754 14.724L11.9759 14.7235L11.9763 14.7232L11.9767 14.7227L11.9771 14.7223L11.9775 14.7219L11.9779 14.7215L12.7555 15.4985L12.7551 15.4989L12.7547 15.4993L12.7543 15.4997L12.7539 15.5002L12.7534 15.5006L12.753 15.501L12.7526 15.5015L12.7521 15.502L12.7512 15.5028L12.7507 15.5033L12.7502 15.5038L12.7499 15.5042L12.7494 15.5046L12.749 15.505L12.7486 15.5055L12.7481 15.5059L12.7477 15.5064L12.7427 15.5114L12.7405 15.5135L12.7401 15.514L12.7386 15.5154L12.7376 15.5164L12.7371 15.5169L12.7356 15.5185L12.7345 15.5196L12.721 15.5331L12.7179 15.5361L12.7172 15.5369L6.43455 21.8195Z"/>
</svg>
