<svg width="30" height="30" viewBox="0 0 30 30" fill="currentColor" xmlns="http://www.w3.org/2000/svg">
<path d="M14.9945 30C12.028 29.9989 9.12844 29.1182 6.66243 27.4694C4.19642 25.8205 2.27469 23.4774 1.14022 20.7364C0.00575779 17.9954 -0.2905 14.9796 0.288903 12.0703C0.868306 9.16091 2.29735 6.48868 4.39536 4.39145C6.49337 2.29421 9.16612 0.866153 12.0757 0.287823C14.9852 -0.290507 18.001 0.0068659 20.7415 1.14234C23.4821 2.27782 25.8244 4.20041 27.4724 6.66703C29.1204 9.13364 30 12.0335 30 15C29.9941 18.9774 28.4111 22.7902 25.5982 25.6021C22.7852 28.414 18.9719 29.9956 14.9945 30ZM14.9945 1.42199C12.309 1.42199 9.68383 2.21833 7.45093 3.7103C5.21804 5.20227 3.47771 7.32287 2.45002 9.80392C1.42234 12.285 1.15345 15.0151 1.67736 17.6489C2.20127 20.2828 3.49444 22.7022 5.39336 24.6011C7.29228 26.5 9.71166 27.7932 12.3455 28.3171C14.9794 28.841 17.7095 28.5721 20.1905 27.5445C22.6716 26.5168 24.7922 24.7764 26.2842 22.5435C27.7761 20.3106 28.5725 17.6855 28.5725 15C28.5681 11.4002 27.1361 7.94917 24.5907 5.40375C22.0453 2.85833 18.5942 1.42638 14.9945 1.42199ZM20.0516 8.91369C19.8328 8.91369 19.6188 8.97859 19.4368 9.10019C19.2549 9.22178 19.113 9.39461 19.0293 9.59681C18.9455 9.79902 18.9236 10.0215 18.9663 10.2362C19.009 10.4508 19.1144 10.648 19.2692 10.8028C19.4239 10.9575 19.6211 11.0629 19.8358 11.1056C20.0504 11.1483 20.2729 11.1264 20.4751 11.0427C20.6773 10.9589 20.8502 10.8171 20.9718 10.6351C21.0933 10.4531 21.1582 10.2392 21.1582 10.0203C21.1582 9.72776 21.0424 9.44713 20.8361 9.23976C20.6298 9.03239 20.3497 8.91515 20.0572 8.91369H20.0516ZM15.1439 10.3357C14.2213 10.3357 13.3195 10.6092 12.5525 11.1218C11.7855 11.6343 11.1876 12.3627 10.8346 13.215C10.4816 14.0673 10.3892 15.0052 10.5692 15.91C10.7491 16.8148 11.1934 17.6459 11.8457 18.2982C12.498 18.9505 13.3291 19.3947 14.2339 19.5747C15.1387 19.7547 16.0765 19.6623 16.9288 19.3093C17.7811 18.9562 18.5096 18.3584 19.0221 17.5914C19.5346 16.8243 19.8082 15.9225 19.8082 15C19.8067 13.7634 19.3148 12.5779 18.4404 11.7034C17.566 10.829 16.3805 10.3371 15.1439 10.3357ZM15.1439 17.9878C14.5529 17.9878 13.9753 17.8126 13.4839 17.4843C12.9926 17.156 12.6096 16.6894 12.3835 16.1434C12.1573 15.5974 12.0982 14.9967 12.2134 14.4171C12.3287 13.8375 12.6133 13.3051 13.0311 12.8873C13.449 12.4694 13.9814 12.1849 14.561 12.0696C15.1405 11.9543 15.7413 12.0135 16.2873 12.2396C16.8332 12.4658 17.2998 12.8487 17.6281 13.3401C17.9564 13.8314 18.1317 14.4091 18.1317 15C18.1302 15.792 17.815 16.5511 17.255 17.1111C16.695 17.6711 15.9358 17.9864 15.1439 17.9878ZM24.55 11.1269C24.55 9.61836 23.9507 8.17161 22.884 7.10492C21.8173 6.03822 20.3706 5.43896 18.862 5.43896H11.3316C9.82308 5.43896 8.37633 6.03822 7.30964 7.10492C6.24294 8.17161 5.64368 9.61836 5.64368 11.1269V18.6297C5.64368 20.1382 6.24294 21.5849 7.30964 22.6516C8.37633 23.7183 9.82308 24.3176 11.3316 24.3176H18.8399C19.5887 24.3205 20.3307 24.1755 21.0234 23.891C21.716 23.6065 22.3457 23.1879 22.8762 22.6595C23.4067 22.131 23.8277 21.503 24.1149 20.8115C24.4021 20.1199 24.55 19.3785 24.55 18.6297V11.1269ZM22.7684 18.6352C22.7684 19.1482 22.6673 19.6561 22.471 20.1301C22.2747 20.604 21.987 21.0346 21.6242 21.3974C21.2615 21.7601 20.8309 22.0478 20.3569 22.2441C19.883 22.4405 19.375 22.5415 18.862 22.5415H11.3316C10.8186 22.5415 10.3107 22.4405 9.83673 22.2441C9.3628 22.0478 8.93218 21.7601 8.56944 21.3974C8.20671 21.0346 7.91897 20.604 7.72266 20.1301C7.52635 19.6561 7.42531 19.1482 7.42531 18.6352V11.1214C7.42531 10.0853 7.83687 9.09176 8.56944 8.35919C9.30202 7.62661 10.2956 7.21505 11.3316 7.21505H18.8399C19.8759 7.21505 20.8695 7.62661 21.6021 8.35919C22.3347 9.09176 22.7462 10.0853 22.7462 11.1214L22.7684 18.6352Z"/>
</svg>
